<?xml version="1.0" encoding="UTF-8" standalone="no"?>
<!DOCTYPE svg PUBLIC "-//W3C//DTD SVG 1.1//EN"
 "http://www.w3.org/Graphics/SVG/1.1/DTD/svg11.dtd">
<!-- Generated by graphviz version 13.1.2 (20250808.2320)
 -->
<!-- Title: G Pages: 1 -->
<svg width="273pt" height="232pt"
 viewBox="0.00 0.00 273.00 232.00" xmlns="http://www.w3.org/2000/svg" xmlns:xlink="http://www.w3.org/1999/xlink">
<g id="graph0" class="graph" transform="scale(1 1) rotate(0) translate(4 228.13)">
<title>G</title><style>.edge>path:hover{stroke-width:8}</style>
<polygon fill="white" stroke="none" points="-4,4 -4,-228.13 269.21,-228.13 269.21,4 -4,4"/>
<!-- allocation_models -->
<g id="node1" class="node">
<title>allocation_models</title><style>.edge>path:hover{stroke-width:8}</style>
<ellipse fill="#c24747" stroke="black" cx="42.6" cy="-202.57" rx="42.6" ry="21.57"/>
<text xml:space="preserve" text-anchor="middle" x="42.6" y="-204.32" font-family="Helvetica,sans-Serif" font-size="10.00" fill="#ffffff">allocation.</text>
<text xml:space="preserve" text-anchor="middle" x="42.6" y="-193.07" font-family="Helvetica,sans-Serif" font-size="10.00" fill="#ffffff">models</text>
</g>
<!-- core_logic -->
<g id="node3" class="node">
<title>core_logic</title><style>.edge>path:hover{stroke-width:8}</style>
<polygon fill="blue" stroke="black" points="161.6,-108 103.6,-108 103.6,-72 161.6,-72 161.6,-108"/>
<text xml:space="preserve" text-anchor="middle" x="132.6" y="-86.12" font-family="Helvetica,sans-Serif" font-size="10.00" fill="white">core.logic</text>
</g>
<!-- allocation_models&#45;&gt;core_logic -->
<g id="edge1" class="edge">
<title>allocation_models&#45;&gt;core_logic</title><style>.edge>path:hover{stroke-width:8}</style>
<path fill="none" stroke="black" d="M75.6,-144C81.39,-133.39 90.09,-123.73 98.96,-115.64"/>
<polygon fill="#c24747" stroke="black" points="100.95,-118.54 106.28,-109.38 96.4,-113.22 100.95,-118.54"/>
</g>
<!-- core_service -->
<g id="node4" class="node">
<title>core_service</title><style>.edge>path:hover{stroke-width:8}</style>
<polygon fill="blue" stroke="black" points="167.23,-36 97.98,-36 97.98,0 167.23,0 167.23,-36"/>
<text xml:space="preserve" text-anchor="middle" x="132.6" y="-14.12" font-family="Helvetica,sans-Serif" font-size="10.00" fill="white">core.service</text>
</g>
<!-- allocation_models&#45;&gt;core_service -->
<g id="edge2" class="edge">
<title>allocation_models&#45;&gt;core_service</title><style>.edge>path:hover{stroke-width:8}</style>
<path fill="none" stroke="black" d="M75.6,-144C91.45,-114.95 80.51,-101.94 94.6,-72 98.97,-62.72 105,-53.38 110.98,-45.17"/>
<polygon fill="#c24747" stroke="black" points="113.67,-47.42 116.94,-37.34 108.1,-43.17 113.67,-47.42"/>
<path fill="none" stroke="black" d="M54.01,-181.55C60.27,-170.67 68.24,-157.03 75.6,-145"/>
</g>
<!-- allocation_signals -->
<g id="node2" class="node">
<title>allocation_signals</title><style>.edge>path:hover{stroke-width:8}</style>
<ellipse fill="#c24747" stroke="black" cx="222.6" cy="-202.57" rx="42.6" ry="21.57"/>
<text xml:space="preserve" text-anchor="middle" x="222.6" y="-204.32" font-family="Helvetica,sans-Serif" font-size="10.00" fill="#ffffff">allocation.</text>
<text xml:space="preserve" text-anchor="middle" x="222.6" y="-193.07" font-family="Helvetica,sans-Serif" font-size="10.00" fill="#ffffff">signals</text>
</g>
<!-- allocation_signals&#45;&gt;core_logic -->
<g id="edge3" class="edge">
<title>allocation_signals&#45;&gt;core_logic</title><style>.edge>path:hover{stroke-width:8}</style>
<path fill="none" stroke="black" d="M189.6,-144C183.82,-133.39 175.12,-123.73 166.25,-115.64"/>
<polygon fill="#c24747" stroke="black" points="168.8,-113.22 158.93,-109.38 164.25,-118.54 168.8,-113.22"/>
<path fill="none" stroke="black" d="M210.56,-181.57C204.18,-170.82 196.3,-157.28 189.6,-145"/>
</g>
<!-- allocation_signals&#45;&gt;core_service -->
<g id="edge4" class="edge">
<title>allocation_signals&#45;&gt;core_service</title><style>.edge>path:hover{stroke-width:8}</style>
<path fill="none" stroke="black" d="M189.6,-144C173.76,-114.95 184.7,-101.94 170.6,-72 166.24,-62.72 160.2,-53.38 154.23,-45.17"/>
<polygon fill="#c24747" stroke="black" points="157.11,-43.17 148.26,-37.34 151.54,-47.42 157.11,-43.17"/>
</g>
<!-- core_logic&#45;&gt;core_service -->
<g id="edge5" class="edge">
<title>core_logic&#45;&gt;core_service</title><style>.edge>path:hover{stroke-width:8}</style>
<path fill="none" stroke="black" d="M132.6,-60.24C132.6,-56.01 132.6,-51.66 132.6,-47.44"/>
<polygon fill="blue" stroke="black" points="129.1,-60.18 132.6,-70.18 136.1,-60.18 129.1,-60.18"/>
<polygon fill="blue" stroke="black" points="136.1,-47.62 132.6,-37.62 129.1,-47.62 136.1,-47.62"/>
</g>
<!-- ensures -->
<g id="node5" class="node">
<title>ensures</title><style>.edge>path:hover{stroke-width:8}</style>
<ellipse fill="#5353b6" stroke="black" cx="132.6" cy="-202.57" rx="29.88" ry="18"/>
<text xml:space="preserve" text-anchor="middle" x="132.6" y="-198.69" font-family="Helvetica,sans-Serif" font-size="10.00" fill="#ffffff">ensures</text>
</g>
<!-- ensures&#45;&gt;core_logic -->
<g id="edge7" class="edge">
<title>ensures&#45;&gt;core_logic</title><style>.edge>path:hover{stroke-width:8}</style>
<path fill="none" stroke="black" d="M132.6,-184.29C132.6,-167.01 132.6,-140.12 132.6,-119.64"/>
<polygon fill="#5353b6" stroke="black" points="136.1,-119.67 132.6,-109.67 129.1,-119.67 136.1,-119.67"/>
</g>
</g>
</svg>
